# xmcd CD database file
# Copyright (C) 1993-1998 Ti Kan
# 
# Track frame offsets:
#     150
#     22125
#     44892
#     76085
#     107132
#     130810
#     150882
#     168895
#     176735
#     203995
#     235497
# 
# Disc length: 3398 seconds
# 
# Revision: 1
# Processed by: cddbd v1.4b41PL1 Copyright (c) Steve Scherf et al.
# Submitted via: DiscPlay 4.0.4
# 
DISCID=8e0d440b
DTITLE=Willie Kent - Ain't it Nice
DYEAR=1900
DGENRE=
TTITLE0=Memory of You
TTITLE1=Check it Out
TTITLE2=Worry Worry
TTITLE3=One More Mile
TTITLE4=Ain't It Nice
TTITLE5=What You're Doing to Me
TTITLE6=I'm Good (Vocal by Bonnie Lee)
TTITLE7=Ma Bea's
TTITLE8=Come Home
TTITLE9=Feel so Good
TTITLE10=Stranded
EXTD=
EXTT0=
EXTT1=
EXTT2=
EXTT3=
EXTT4=
EXTT5=
EXTT6=
EXTT7=
EXTT8=
EXTT9=
EXTT10=
PLAYORDER=
